<svg xmlns="http://www.w3.org/2000/svg" viewBox="0 0 60 60">
    <path
        style="fill:#174C7E;fillRule:evenodd;"
        d="M57.52,25.59H52.37A23.38,23.38,0,0,0,48.82,17L52.5,13.3a.81.81,0,0,0,0-1.12h0L47.28,7a.8.8,0,0,0-1.13,0h0L42.5,10.62A23.6,23.6,0,0,0,33.87,7V1.94a.79.79,0,0,0-.8-.79H25.7a.79.79,0,0,0-.8.79V7a23.6,23.6,0,0,0-8.63,3.59L12.62,7a.8.8,0,0,0-1.13,0h0L6.27,12.18a.81.81,0,0,0,0,1.12h0L10,17A23.38,23.38,0,0,0,6.4,25.59H1.25a.79.79,0,0,0-.79.79h0v7.38a.79.79,0,0,0,.79.79H6.43A23.29,23.29,0,0,0,10,43.12L6.28,46.84a.8.8,0,0,0,0,1.12h0l5.21,5.22a.82.82,0,0,0,1.13,0h0l3.73-3.74A23.38,23.38,0,0,0,24.9,53V58.2a.79.79,0,0,0,.8.79h7.37a.79.79,0,0,0,.8-.79V53a23.38,23.38,0,0,0,8.55-3.54l3.73,3.74a.82.82,0,0,0,1.13,0h0L52.5,48a.81.81,0,0,0,0-1.12h0l-3.73-3.72a23.29,23.29,0,0,0,3.57-8.57h5.18a.79.79,0,0,0,.79-.79V26.38a.79.79,0,0,0-.78-.79ZM56.73,33h-5a.79.79,0,0,0-.78.66,21.9,21.9,0,0,1-3.81,9.12.8.8,0,0,0,.08,1l3.64,3.63-4.1,4.1-3.65-3.64a.8.8,0,0,0-1-.09A21.89,21.89,0,0,1,33,51.54a.8.8,0,0,0-.67.78v5.09H26.49V52.32a.8.8,0,0,0-.67-.78,21.87,21.87,0,0,1-9.1-3.76.79.79,0,0,0-1,.08l-3.64,3.65L8,47.4l3.64-3.63a.8.8,0,0,0,.08-1,21.9,21.9,0,0,1-3.81-9.12A.79.79,0,0,0,7.08,33H2v-5.8h5a.79.79,0,0,0,.78-.66,21.79,21.79,0,0,1,3.78-9.17.79.79,0,0,0-.09-1L8,12.74l4.11-4.1,3.56,3.57a.79.79,0,0,0,1,.08,21.88,21.88,0,0,1,9.18-3.81.79.79,0,0,0,.67-.78v-5h5.79v5a.82.82,0,0,0,.67.78,21.88,21.88,0,0,1,9.18,3.81.79.79,0,0,0,1-.08l3.56-3.57,4.1,4.1-3.57,3.58a.8.8,0,0,0-.09,1,21.79,21.79,0,0,1,3.78,9.17.79.79,0,0,0,.78.66h5V33ZM37,29.36l-12.4-6.2a.8.8,0,0,0-1.06.35h0a.72.72,0,0,0-.08.35v12.4a.78.78,0,0,0,.78.79A.86.86,0,0,0,24.6,37L37,30.78a.79.79,0,0,0,.35-1.06.76.76,0,0,0-.35-.36ZM25,35V25.15l9.84,4.92Z"
    />
    <path
        style="fill:#C41A2F;fillRule:evenodd;"
        d="M41.71,17.74l-.07-.07a17.41,17.41,0,0,0-24.5,0,.54.54,0,0,0-.15.15,17.4,17.4,0,0,0,0,24.49.54.54,0,0,0,.15.15,17.41,17.41,0,0,0,24.5,0,.71.71,0,0,0,.15-.15,17.43,17.43,0,0,0,0-24.5Zm-.57,23-2-2a13,13,0,0,0,3.25-7.83h2.85a15.78,15.78,0,0,1-4.08,9.84ZM13.55,30.86H16.4a13,13,0,0,0,3.25,7.83l-2,2a15.75,15.75,0,0,1-4.08-9.84Zm4.08-11.42,2,2a13,13,0,0,0-3.25,7.83H13.55a15.86,15.86,0,0,1,4.08-9.84ZM29.39,41.5A11.43,11.43,0,1,1,40.81,30.07h0A11.44,11.44,0,0,1,29.39,41.5ZM38,20.33a13,13,0,0,0-7.84-3.24V14.24A15.75,15.75,0,0,1,40,18.32ZM28.6,17.09a12.93,12.93,0,0,0-7.83,3.25l-2-2a15.76,15.76,0,0,1,9.84-4.09v2.86ZM20.77,39.81a13,13,0,0,0,7.83,3.24v2.86a15.71,15.71,0,0,1-9.84-4.09Zm9.4,3.24A13,13,0,0,0,38,39.81l2,2a15.81,15.81,0,0,1-9.85,4.09V43.05Zm12.2-13.77a13,13,0,0,0-3.25-7.83l2-2a15.78,15.78,0,0,1,4.08,9.84Z"
    />
</svg>
