<svg xmlns="http://www.w3.org/2000/svg" viewBox="0 0 60 60">
    <path
        style="fill:#C41A2F;fillRule:evenodd;"
        d="M38.76,27.42a4,4,0,0,0-3.07-3.81,3.08,3.08,0,0,0,.08-.68,3.22,3.22,0,0,0-3.33-3.08,3.43,3.43,0,0,0-2.49,1,3.47,3.47,0,0,0-2.5-1,3.21,3.21,0,0,0-3.32,3.08,3.08,3.08,0,0,0,.08.68,4,4,0,0,0-3.08,3.81A3.69,3.69,0,0,0,22,29.81a4.16,4.16,0,0,0-.88,2.54,4.33,4.33,0,0,0,2,3.59h0A3.7,3.7,0,0,0,27,39.47a4,4,0,0,0,3-1.34,3.93,3.93,0,0,0,3,1.34,3.72,3.72,0,0,0,3.82-3.32,3.92,3.92,0,0,0,2-3.35,3.77,3.77,0,0,0-1.15-2.69A3.8,3.8,0,0,0,38.76,27.42Zm-2.94,3.43A2.24,2.24,0,0,1,37.1,32.8a2.18,2.18,0,0,1-.73,1.58,3.71,3.71,0,0,0-2.18-1.78.82.82,0,0,0-1,.54h0a.85.85,0,0,0,.55,1.05,1.89,1.89,0,0,1,1.41,1.74,2.18,2.18,0,0,1-4.32,0V30.56a2,2,0,0,1,2.16-1.85.84.84,0,0,0,0-1.68,3.91,3.91,0,0,0-2.16.62V26.58a.83.83,0,1,0-1.66,0h0v4.65a4.53,4.53,0,0,0-.92-.43.84.84,0,0,0-1,.55h0a.83.83,0,0,0,.54,1,1.92,1.92,0,0,1,1.42,1.74v1.8a2.21,2.21,0,0,1-2.51,1.83,2.19,2.19,0,0,1-1.82-1.83,1.71,1.71,0,0,1,.51-1.2.84.84,0,0,0,0-1.18.82.82,0,0,0-1.17,0h0a3.25,3.25,0,0,0-.51.65,2.57,2.57,0,0,1-.83-1.85,2.84,2.84,0,0,1,2.35-2.66.83.83,0,0,0,.62-1,.83.83,0,0,0-1-.63h0a5,5,0,0,0-1.53.62,2,2,0,0,1-.45-1.26,2.49,2.49,0,0,1,2.64-2.3h0a.81.81,0,0,0,.53-.2.84.84,0,0,0,.17-1.08l0,0v0l0-.05h0a1.27,1.27,0,0,1-.3-.81,1.67,1.67,0,0,1,1.94-1.38,1.71,1.71,0,0,1,1.39,1.38.83.83,0,1,0,1.66,0,1.68,1.68,0,0,1,1.94-1.38,1.71,1.71,0,0,1,1.39,1.38,1.19,1.19,0,0,1-.13.53,4.26,4.26,0,0,0-1.36.35.83.83,0,0,0-.44,1.09.82.82,0,0,0,1.07.46h0a3,3,0,0,1,1.15-.23h0a2.51,2.51,0,0,1,2.65,2.3,2.22,2.22,0,0,1-1.28,1.94.85.85,0,0,0-.33,1.15.87.87,0,0,0,.33.33Zm-21-29.07A1.92,1.92,0,1,1,13,3.72v0a1.91,1.91,0,0,1,1.89-1.92h0ZM36.74,3.32A1.88,1.88,0,0,1,38.65,5.2a1.9,1.9,0,1,1-3.8,0h0A1.89,1.89,0,0,1,36.74,3.32Zm-31,17.56a1.92,1.92,0,1,1-1.89,1.94v0a1.88,1.88,0,0,1,1.88-1.91ZM4.27,43A1.91,1.91,0,1,1,2.38,45h0A1.91,1.91,0,0,1,4.27,43ZM23.16,52.2a1.9,1.9,0,1,1-1.89,1.91h0A1.89,1.89,0,0,1,23.16,52.2ZM53.38,34.64a1.9,1.9,0,1,1-1.89,1.91h0A1.89,1.89,0,0,1,53.38,34.64Z"
        />
    <path
        style="fill:#174C7E;fillRule:evenodd;"
        d="M57.45,28.82H44.09V26.91H47.7a.84.84,0,0,0,0-1.68H44.09V23.32h2.5a3.42,3.42,0,0,0,2.47-1l5.46-5.52a2.59,2.59,0,0,0,3-.5,2.64,2.64,0,0,0,0-3.72,2.58,2.58,0,0,0-3.65,0l0,0a2.65,2.65,0,0,0-.49,3L47.89,21.1a1.82,1.82,0,0,1-1.3.55h-2.5V19.79a4.41,4.41,0,0,0-4.38-4.42H37.88V7.94a2.61,2.61,0,1,0-1.66,0v7.43H34.33V11.72a.83.83,0,1,0-1.66,0v3.65H30.78V1.86a.84.84,0,0,0-1.67-.06V15.37H27.23V11.72a.83.83,0,0,0-1.66,0h0v3.65H23.68V12.84a3.53,3.53,0,0,0-1-2.5L17.19,4.82a2.65,2.65,0,0,0-.49-3,2.58,2.58,0,0,0-3.65,0l0,0a2.64,2.64,0,0,0,0,3.72A2.59,2.59,0,0,0,16,6l5.46,5.52a1.85,1.85,0,0,1,.54,1.3v2.54H20.18a4.08,4.08,0,0,0-1.09.14.84.84,0,0,0,.41,1.62h0a2.71,2.71,0,0,1,.68-.09H39.71a2.74,2.74,0,0,1,2.72,2.75V39.52a2.61,2.61,0,0,1-.09.69.85.85,0,0,0,.6,1,.76.76,0,0,0,.21,0,.82.82,0,0,0,.8-.63,4.56,4.56,0,0,0,.14-1.11V37.67h7.35a2.62,2.62,0,1,0,0-1.68H44.09v-1.9H47.7a.85.85,0,0,0,.81-.87.83.83,0,0,0-.81-.81H44.09V30.5H57.45a.84.84,0,0,0,0-1.68ZM55,13.74a.92.92,0,0,1,1.32,0h0a1,1,0,0,1,0,1.35.93.93,0,0,1-1.32,0h0a1.29,1.29,0,0,1,0-1.35ZM15.53,4.33a.94.94,0,0,1-1.33,0h0A1,1,0,0,1,14.2,3a.92.92,0,0,1,1.32,0h0A1,1,0,0,1,15.53,4.33ZM37,6.4a1,1,0,1,1,1-1h0A1,1,0,0,1,37,6.4ZM53.9,35.88a1,1,0,1,1-.94,1h0A.94.94,0,0,1,53.9,35.88Zm-7,17.93a2.59,2.59,0,0,0-3-.49L38.41,47.8a1.85,1.85,0,0,1-.54-1.31V44H39.7a4.54,4.54,0,0,0,1.1-.14.84.84,0,0,0,.59-1,.83.83,0,0,0-1-.61h0a2.59,2.59,0,0,1-.68.09H20.18a2.74,2.74,0,0,1-2.72-2.75V19.79a3.08,3.08,0,0,1,.08-.68.83.83,0,0,0-.59-1,.82.82,0,0,0-1,.59h0a4.1,4.1,0,0,0-.14,1.1v1.86H8.45a2.63,2.63,0,1,0,0,1.67H15.8v1.91H12.19a.84.84,0,0,0,0,1.68H15.8v1.91H2.44a.84.84,0,0,0,0,1.68H15.81v1.91H12.2a.84.84,0,0,0,0,1.68h3.61V36h-2.5a3.42,3.42,0,0,0-2.47,1L5.38,42.55a2.59,2.59,0,0,0-3,.5,2.64,2.64,0,0,0,0,3.72A2.58,2.58,0,0,0,6,46.8l0,0a2.65,2.65,0,0,0,.49-3L12,38.22a1.81,1.81,0,0,1,1.29-.55h2.51v1.86A4.41,4.41,0,0,0,20.19,44H22v7.43a2.61,2.61,0,1,0,1.66,0V44h1.89V47.6a.83.83,0,0,0,1.66,0V44h1.89V57.46a.83.83,0,0,0,.8.86.84.84,0,0,0,.86-.81V44h1.88V47.6a.83.83,0,0,0,1.66,0V44h1.89v2.53a3.53,3.53,0,0,0,1,2.5L42.7,54.5a2.65,2.65,0,0,0,.49,3,2.59,2.59,0,0,0,3.66,0l0,0A2.65,2.65,0,0,0,46.87,53.81ZM6,23.44a1,1,0,1,1,1-1v0A1,1,0,0,1,6,23.44ZM4.89,45.58a.94.94,0,0,1-1.33,0h0a1,1,0,0,1,0-1.35.94.94,0,0,1,1.33,0h0A1,1,0,0,1,4.89,45.58Zm18.9,8.3a.94.94,0,1,1-.94-1A.94.94,0,0,1,23.79,53.88ZM45.7,56.34a.94.94,0,0,1-1.33,0h0a1,1,0,0,1,0-1.35.94.94,0,0,1,1.33,0h0A1,1,0,0,1,45.7,56.34Z"
    />
</svg>
