<svg xmlns="http://www.w3.org/2000/svg" viewBox="0 0 60 60">
    <path
        style="fill:#174C7E;fillRule:evenodd;"
        d="M55.9,32.69c-6.21-7.23-15.43-13.23-24.79-13.23s-18.58,6-24.79,13.23A1,1,0,0,0,6.4,34.1,1,1,0,0,0,7.76,34l0,0c.21-.25.42-.49.64-.73a27.1,27.1,0,0,0,45.38,0c.21.24.43.48.64.73a1,1,0,0,0,1.35.11l0,0A1,1,0,0,0,55.9,32.69ZM31.11,43.56A25.33,25.33,0,0,1,9.82,31.81c3.48-3.5,11.54-10.35,21.29-10.35S48.92,28.31,52.4,31.81A25.32,25.32,0,0,1,31.11,43.56Z"
    />
    <path
        style="fill:#C41A2F;fillRule:evenodd;"
        d="M25.93,27.78a1,1,0,0,0-1.35,0l0,0a1,1,0,0,0,0,1.42,1,1,0,0,0,1.36,0l0,0A1,1,0,0,0,25.93,27.78Zm5.18,1.72A3,3,0,1,0,34,32.6s0-.06,0-.08a3,3,0,0,0-2.94-3Zm0,4a1,1,0,1,1-.05-2,1,1,0,0,1,1,1v0a1,1,0,0,1-1,1Zm0-9a7.58,7.58,0,0,0-3.14.68,1,1,0,0,0-.5,1.32,1,1,0,0,0,1.26.53l0,0a5.77,5.77,0,0,1,2.35-.5,6,6,0,1,1-5.86,6.19.92.92,0,0,1,0-.16v-.11a1,1,0,1,0-1.95-.1v.21a7.83,7.83,0,1,0,7.82-8Zm0-15.06a1,1,0,0,0-1,1h0v6a1,1,0,0,0,2,.05V10.42a1,1,0,0,0-1-1h0ZM20.18,16.86,16,12.6a1,1,0,0,0-1.36,0l0,0a1,1,0,0,0,0,1.42l4.15,4.26a1,1,0,0,0,1.36,0l0,0a1,1,0,0,0,0-1.42ZM47.57,12.6a1,1,0,0,0-1.36,0l0,0L42,16.86a1,1,0,0,0,0,1.42,1,1,0,0,0,1.36,0l0,0L47.57,14a1,1,0,0,0,0-1.42Z"
    />
</svg>
