<svg xmlns="http://www.w3.org/2000/svg" viewBox="0 0 60 60">
    <path
        style="fill:#174C7E;fillRule:evenodd;"
        d="M17.06,30.91A1.08,1.08,0,1,0,18.14,32a1.08,1.08,0,0,0-1.08-1.08ZM31.9,5.2a19.68,19.68,0,0,0-3.76,0,1.08,1.08,0,0,0,.22,2.14,16.74,16.74,0,0,1,3.32,0h.11a1.07,1.07,0,0,0,.11-2.14Zm5.84,46.52a1.08,1.08,0,0,0-1.42-.57,16.26,16.26,0,0,1-21.27-8.7L15,42.33a1.08,1.08,0,0,0-2,.81,18.41,18.41,0,0,0,24,10l.14,0a1.08,1.08,0,0,0,.57-1.41ZM47.3,33.6a1.07,1.07,0,0,0-1.08,1.07v1.62a16,16,0,0,1-5.9,12.44,1.08,1.08,0,0,0-.15,1.51h0a1.09,1.09,0,0,0,1.52.15,18.22,18.22,0,0,0,6.68-14.1V34.67A1.09,1.09,0,0,0,47.3,33.6ZM37.16,6.54a1.08,1.08,0,1,0-.84,2h0c8.9,3.75,9.88,12.06,9.89,15.45V29a1.08,1.08,0,0,0,2.16,0V24.19c0-7.82-3.68-14.47-11.2-17.64Zm.7,5.26A14.07,14.07,0,0,0,20.1,13.51c-4,4-4.05,7.71-4.1,10.72,0,1.95,0-1,0,3.45a1.08,1.08,0,0,0,2.16,0V25c.09-3.29-.12-6.4,3.48-10a11.92,11.92,0,0,1,15-1.45A1.08,1.08,0,1,0,38,11.86l-.09-.06ZM30,43.81a7.54,7.54,0,0,1-7.56-7.53V23.39a7.55,7.55,0,0,1,.59-2.93,1.06,1.06,0,0,0-.57-1.41,1.09,1.09,0,0,0-1.42.57h0a9.55,9.55,0,0,0-.76,3.77v12.9A9.71,9.71,0,0,0,30,46a1.08,1.08,0,0,0,.07-2.16ZM38.7,37a1.08,1.08,0,0,0-1.28.84,7.56,7.56,0,0,1-2.06,3.8,1.07,1.07,0,0,0,0,1.51h0a1.09,1.09,0,0,0,1.53,0,9.72,9.72,0,0,0,2.65-4.89A1.08,1.08,0,0,0,38.7,37ZM30,13.71a9.78,9.78,0,0,0-3.78.76,1.08,1.08,0,1,0,.82,2h0a7.55,7.55,0,0,1,9.9,4,7.64,7.64,0,0,1,.6,2.9v9.69a1.07,1.07,0,0,0,1.11,1,1.09,1.09,0,0,0,1.05-1V23.39A9.72,9.72,0,0,0,30,13.71Zm0,8.59a1.08,1.08,0,0,0-1.08,1.08v12.9a1.07,1.07,0,0,0,1.11,1,1.09,1.09,0,0,0,1.05-1V23.39A1.09,1.09,0,0,0,30,22.32Z"
    />
    <path
        style="fill:#C41A2F;fillRule:evenodd;"
        d="M12.1,2.32H3.46A1.08,1.08,0,0,0,2.38,3.39V12a1.08,1.08,0,0,0,2.16,0V4.46H12.1a1.07,1.07,0,1,0,.16-2.14Zm44.48,0H47.94a1.08,1.08,0,0,0,0,2.15H55.5V12a1.08,1.08,0,1,0,2.16,0V3.4a1.08,1.08,0,0,0-1.08-1.08ZM12.1,55.21H4.54V47.69a1.08,1.08,0,0,0-1.11-1,1.09,1.09,0,0,0-1.05,1v8.59a1.08,1.08,0,0,0,1.08,1.08H12.1c.73,0,1.32-.34,1.32-1.08a1,1,0,0,0-1.32-1.07Zm44.48-8.6a1.08,1.08,0,0,0-1.08,1.08v7.52H47.94a1.08,1.08,0,0,0,0,2.15h8.64a1.08,1.08,0,0,0,1.08-1.07v-8.6a1.08,1.08,0,0,0-1.07-1.08ZM12.75,30.91A1.08,1.08,0,0,0,11.67,32v4.3a1.08,1.08,0,0,0,2.16,0V32A1.09,1.09,0,0,0,12.75,30.91ZM24.29,7.11a1.09,1.09,0,0,0-1.41-.57A18.25,18.25,0,0,0,11.67,23.38v4.3a1.08,1.08,0,0,0,2.16,0v-4.3A16.12,16.12,0,0,1,23.72,8.52a1.07,1.07,0,0,0,.57-1.4ZM43.77,20.57a14,14,0,0,0-2.11-5,1.09,1.09,0,0,0-1.5-.29,1.07,1.07,0,0,0-.3,1.49h0A11.79,11.79,0,0,1,41.66,21a1.07,1.07,0,0,0,1.05.86.78.78,0,0,0,.22,0,1.07,1.07,0,0,0,.84-1.26ZM38.15,46.38a1.07,1.07,0,0,0-1.49-.28,11.72,11.72,0,0,1-6.53,2,11.89,11.89,0,0,1-12-11.78v-.06a1.08,1.08,0,0,0-2.16,0A14,14,0,0,0,37.86,47.87a1.06,1.06,0,0,0,.3-1.48ZM43,23.93A1.07,1.07,0,0,0,41.9,25V36.29a11.79,11.79,0,0,1-2,6.61,1.08,1.08,0,0,0,1.79,1.2,13.92,13.92,0,0,0,2.4-7.81V25A1.07,1.07,0,0,0,43,23.93ZM30,18a5.39,5.39,0,0,0-5.4,5.37v9.68a1.1,1.1,0,0,0,1.11,1,1.08,1.08,0,0,0,1.05-1V23.39a3.24,3.24,0,0,1,6.48,0,1.08,1.08,0,0,0,2.16,0A5.4,5.4,0,0,0,30,18Zm5.4,17.18c0-.46,0,.22,0-5.36a1.08,1.08,0,0,0-2.15-.06v.06c0,5.37,0,4.44,0,5.4A5.18,5.18,0,0,1,33,37.55a3.26,3.26,0,0,1-6,0A1.08,1.08,0,0,0,25.62,37,1.09,1.09,0,0,0,25,38.39h0a5.42,5.42,0,0,0,10,0,7,7,0,0,0,.43-3.19Z"
    />
</svg>
