<svg width="100%" height="100%" viewBox="0 0 300 300" version="1.1" xmlns="http://www.w3.org/2000/svg" xmlns:xlink="http://www.w3.org/1999/xlink" xml:space="preserve" xmlns:serif="http://www.serif.com/" style="fill-rule:evenodd;clip-rule:evenodd;stroke-linejoin:round;stroke-miterlimit:2;">
    <g transform="matrix(1,0,0,1,-270,-355)">
        <g id="_3-star" serif:id="3-star" transform="matrix(1,0,0,1,-15,-75)">
            <g transform="matrix(1,0,0,1,-315,230)">
                <rect x="600" y="200" width="300" height="300" style="fill:rgb(235,235,235);fill-opacity:0;"/>
            </g>
            <g transform="matrix(1,0,0,1,166.25,165)">
                <g transform="matrix(3.20311,0,0,3.125,193.75,450)">
                    <g transform="matrix(1,0,0,1,-16,-16)">
                        <path d="M30.336,12.547L20.164,11.473L16,2.133L11.836,11.473L1.664,12.547L9.262,19.395L7.141,29.398L16,24.289L24.859,29.398L22.738,19.395L30.336,12.547Z" style="fill:rgb(252,196,25);fill-rule:nonzero;"/>
                    </g>
                </g>
                <g transform="matrix(3.125,0,0,3.125,270,380)">
                    <g transform="matrix(1,0,0,1,-16,-16)">
                        <path d="M30.336,12.547L20.164,11.473L16,2.133L11.836,11.473L1.664,12.547L9.262,19.395L7.141,29.398L16,24.289L24.859,29.398L22.738,19.395L30.336,12.547Z" style="fill:rgb(252,196,25);fill-rule:nonzero;"/>
                    </g>
                </g>
                <g transform="matrix(3.125,0,0,3.125,345,450)">
                    <g transform="matrix(1,0,0,1,-16,-16)">
                        <path d="M30.336,12.547L20.164,11.473L16,2.133L11.836,11.473L1.664,12.547L9.262,19.395L7.141,29.398L16,24.289L24.859,29.398L22.738,19.395L30.336,12.547Z" style="fill:rgb(252,196,25);fill-rule:nonzero;"/>
                    </g>
                </g>
            </g>
        </g>
    </g>
</svg>