<svg width="100%" height="100%" viewBox="0 0 596 313" version="1.1" xmlns="http://www.w3.org/2000/svg" xmlns:xlink="http://www.w3.org/1999/xlink" xml:space="preserve" xmlns:serif="http://www.serif.com/" style="fill-rule:evenodd;clip-rule:evenodd;stroke-linejoin:round;stroke-miterlimit:2;">
    <g transform="matrix(1,0,0,1,-324.603,0)">
        <g>
            <g transform="matrix(1,0,0,1,-139.791,-169.598)">
                <path d="M1007.96,471.117C1006.46,471.892 1005.06,472.855 1003.81,473.984C1002.53,472.85 1001.12,471.886 999.591,471.117C998.092,471.892 996.698,472.855 995.443,473.984C994.168,472.85 992.751,471.886 991.227,471.117C989.704,470.347 984.726,474.315 984.744,478.222C984.744,478.32 984.749,478.417 984.757,478.514C984.979,481.072 991.701,481.724 995.394,480.518C998.127,481.298 1001.02,481.298 1003.76,480.518C1007.44,481.743 1014.29,481.041 1014.49,478.454C1014.5,478.357 1014.5,478.26 1014.5,478.162C1014.49,474.254 1007.96,471.117 1007.96,471.117Z" style="fill:rgb(242,242,242);fill-rule:nonzero;"/>
            </g>
            <g transform="matrix(1,0,0,1,77.7771,-169.598)">
                <path d="M277.995,471.953C276.496,472.728 275.102,473.692 273.847,474.82C272.572,473.686 271.155,472.723 269.631,471.953C268.132,472.728 266.738,473.692 265.483,474.82C264.208,473.686 262.791,472.723 261.267,471.953C259.744,471.184 254.766,475.151 254.784,479.058C254.784,479.156 254.788,479.253 254.797,479.35C255.019,481.908 261.741,482.56 265.433,481.354C268.167,482.134 271.064,482.134 273.798,481.354C277.474,482.579 284.333,481.878 284.534,479.29C284.541,479.193 284.545,479.096 284.544,478.998C284.526,475.091 277.995,471.953 277.995,471.953Z" style="fill:rgb(34,139,230);fill-rule:nonzero;"/>
            </g>
            <g transform="matrix(1,0,0,1,265.978,0)">
                <circle cx="121.748" cy="28.641" r="28.641" style="fill:rgb(255,101,132);"/>
            </g>
            <path d="M373.739,263.999L370.279,258.232L402.576,205.457L485.625,205.457L485.625,213.531L455.635,270.92L421.031,277.841L373.739,263.999Z" style="fill:rgb(63,61,86);fill-rule:nonzero;"/>
            <path d="M499.921,246.794L499.921,203.655L489.048,203.655L489.048,209.346L485.625,205.457L457.942,258.232L453.328,262.846L447.561,285.915L457.942,311.291L511.001,311.291L511.001,259.385L499.921,246.794Z" style="fill:rgb(204,204,204);fill-rule:nonzero;"/>
            <rect x="370.279" y="258.232" width="87.663" height="53.059" style="fill:rgb(242,242,242);"/>
            <rect x="427.375" y="274.957" width="18.455" height="16.149" style="fill:rgb(63,61,86);"/>
            <rect x="403.729" y="274.381" width="16.149" height="36.911" style="fill:rgb(204,204,204);"/>
            <path d="M385.274,280.148L385.274,274.381L378.353,274.381L378.353,280.148L385.274,280.148Z" style="fill:rgb(63,61,86);fill-rule:nonzero;"/>
            <path d="M384.697,284.762L378.353,284.762L378.353,290.529L385.274,290.529L385.274,284.762L384.697,284.762Z" style="fill:rgb(63,61,86);fill-rule:nonzero;"/>
            <rect x="389.888" y="274.381" width="6.921" height="5.767" style="fill:rgb(63,61,86);"/>
            <rect x="389.888" y="284.762" width="6.921" height="5.767" style="fill:rgb(63,61,86);"/>
            <path d="M482.742,281.561L482.742,275.794L475.821,275.794L475.821,281.561L482.742,281.561Z" style="fill:rgb(63,61,86);fill-rule:nonzero;"/>
            <path d="M482.165,286.175L475.821,286.175L475.821,291.942L482.742,291.942L482.742,286.175L482.165,286.175Z" style="fill:rgb(63,61,86);fill-rule:nonzero;"/>
            <rect x="487.355" y="275.794" width="6.921" height="5.767" style="fill:rgb(63,61,86);"/>
            <rect x="487.355" y="286.175" width="6.921" height="5.767" style="fill:rgb(63,61,86);"/>
            <path d="M410.036,227.148L409.125,225.631L417.623,211.745L439.474,211.745L439.474,213.869L431.584,228.969L422.479,230.79L410.036,227.148Z" style="fill:rgb(63,61,86);fill-rule:nonzero;"/>
            <path d="M439.474,211.745L432.191,225.631L430.977,226.845L429.459,232.915L432.191,239.591L446.151,239.591L446.151,225.934L439.474,211.745Z" style="fill:rgb(204,204,204);fill-rule:nonzero;"/>
            <rect x="409.125" y="225.631" width="23.065" height="13.961" style="fill:rgb(242,242,242);"/>
            <path d="M418.897,231.647L418.897,228.893L415.593,228.893L415.593,231.647L418.897,231.647Z" style="fill:rgb(63,61,86);fill-rule:nonzero;"/>
            <path d="M418.622,233.85L415.593,233.85L415.593,236.603L418.897,236.603L418.897,233.85L418.622,233.85Z" style="fill:rgb(63,61,86);fill-rule:nonzero;"/>
            <rect x="421.1" y="228.893" width="3.304" height="2.754" style="fill:rgb(63,61,86);"/>
            <rect x="421.1" y="233.85" width="3.304" height="2.754" style="fill:rgb(63,61,86);"/>
            <path d="M478.29,263.999L474.829,258.232L507.126,205.457L590.176,205.457L590.176,213.531L560.186,270.92L525.582,277.841L478.29,263.999Z" style="fill:rgb(63,61,86);fill-rule:nonzero;"/>
            <path d="M604.472,246.794L604.472,203.655L593.599,203.655L593.599,209.346L590.176,205.457L562.493,258.232L557.879,262.846L552.111,285.915L562.493,311.291L615.552,311.291L615.552,259.385L604.472,246.794Z" style="fill:rgb(204,204,204);fill-rule:nonzero;"/>
            <rect x="474.829" y="258.232" width="87.663" height="53.059" style="fill:rgb(242,242,242);"/>
            <rect x="531.926" y="274.957" width="18.455" height="16.149" style="fill:rgb(63,61,86);"/>
            <rect x="508.28" y="274.381" width="16.149" height="36.911" style="fill:rgb(204,204,204);"/>
            <path d="M489.824,280.148L489.824,274.38L482.903,274.38L482.903,280.148L489.824,280.148Z" style="fill:rgb(63,61,86);fill-rule:nonzero;"/>
            <path d="M489.248,284.762L482.903,284.762L482.903,290.529L489.824,290.529L489.824,284.762L489.248,284.762Z" style="fill:rgb(63,61,86);fill-rule:nonzero;"/>
            <rect x="494.438" y="274.381" width="6.921" height="5.767" style="fill:rgb(63,61,86);"/>
            <rect x="494.438" y="284.762" width="6.921" height="5.767" style="fill:rgb(63,61,86);"/>
            <path d="M587.292,280.725L587.292,274.957L580.371,274.957L580.371,280.725L587.292,280.725Z" style="fill:rgb(63,61,86);fill-rule:nonzero;"/>
            <path d="M586.715,285.338L580.371,285.338L580.371,291.106L587.292,291.106L587.292,285.338L586.715,285.338Z" style="fill:rgb(63,61,86);fill-rule:nonzero;"/>
            <rect x="591.906" y="274.957" width="6.921" height="5.767" style="fill:rgb(63,61,86);"/>
            <rect x="591.906" y="285.338" width="6.921" height="5.767" style="fill:rgb(63,61,86);"/>
            <path d="M579.495,263.999L576.034,258.232L608.331,205.457L691.381,205.457L691.381,213.531L661.391,270.92L626.787,277.841L579.495,263.999Z" style="fill:rgb(63,61,86);fill-rule:nonzero;"/>
            <path d="M705.677,246.794L705.677,203.655L694.804,203.655L694.804,209.346L691.381,205.457L663.698,258.232L659.084,262.846L653.316,285.915L663.698,311.291L716.757,311.291L716.757,259.385L705.677,246.794Z" style="fill:rgb(204,204,204);fill-rule:nonzero;"/>
            <rect x="576.034" y="258.232" width="87.663" height="53.059" style="fill:rgb(242,242,242);"/>
            <rect x="633.131" y="274.957" width="18.455" height="16.149" style="fill:rgb(63,61,86);"/>
            <rect x="609.485" y="274.381" width="16.149" height="36.911" style="fill:rgb(204,204,204);"/>
            <path d="M591.029,280.148L591.029,274.38L584.109,274.38L584.109,280.148L591.029,280.148Z" style="fill:rgb(63,61,86);fill-rule:nonzero;"/>
            <path d="M590.453,284.762L584.109,284.762L584.109,290.529L591.029,290.529L591.029,284.762L590.453,284.762Z" style="fill:rgb(63,61,86);fill-rule:nonzero;"/>
            <rect x="595.643" y="274.381" width="6.921" height="5.767" style="fill:rgb(63,61,86);"/>
            <rect x="595.643" y="284.762" width="6.921" height="5.767" style="fill:rgb(63,61,86);"/>
            <path d="M688.497,280.725L688.497,274.957L681.576,274.957L681.576,280.725L688.497,280.725Z" style="fill:rgb(63,61,86);fill-rule:nonzero;"/>
            <path d="M687.921,285.338L681.576,285.338L681.576,291.106L688.497,291.106L688.497,285.338L687.921,285.338Z" style="fill:rgb(63,61,86);fill-rule:nonzero;"/>
            <rect x="693.111" y="274.957" width="6.921" height="5.767" style="fill:rgb(63,61,86);"/>
            <rect x="693.111" y="285.338" width="6.921" height="5.767" style="fill:rgb(63,61,86);"/>
            <path d="M512.077,227.985L511.167,226.467L519.664,212.581L541.516,212.581L541.516,214.706L533.625,229.806L524.52,231.626L512.077,227.985Z" style="fill:rgb(63,61,86);fill-rule:nonzero;"/>
            <path d="M541.516,212.581L534.232,226.467L533.018,227.681L531.501,233.751L534.232,240.428L548.193,240.428L548.193,226.771L541.516,212.581Z" style="fill:rgb(204,204,204);fill-rule:nonzero;"/>
            <rect x="511.167" y="226.467" width="23.065" height="13.961" style="fill:rgb(242,242,242);"/>
            <path d="M520.939,232.483L520.939,229.729L517.634,229.729L517.634,232.483L520.939,232.483Z" style="fill:rgb(63,61,86);fill-rule:nonzero;"/>
            <path d="M520.663,234.686L517.634,234.686L517.634,237.44L520.939,237.44L520.939,234.686L520.663,234.686Z" style="fill:rgb(63,61,86);fill-rule:nonzero;"/>
            <rect x="523.142" y="229.729" width="3.304" height="2.754" style="fill:rgb(63,61,86);"/>
            <rect x="523.142" y="234.686" width="3.304" height="2.754" style="fill:rgb(63,61,86);"/>
            <path d="M614.119,227.148L613.208,225.631L621.706,211.745L643.557,211.745L643.557,213.869L635.666,228.969L626.562,230.79L614.119,227.148Z" style="fill:rgb(63,61,86);fill-rule:nonzero;"/>
            <path d="M643.557,211.745L636.273,225.631L635.059,226.845L633.542,232.915L636.273,239.591L650.234,239.591L650.234,225.934L643.557,211.745Z" style="fill:rgb(204,204,204);fill-rule:nonzero;"/>
            <rect x="613.208" y="225.631" width="23.065" height="13.961" style="fill:rgb(242,242,242);"/>
            <path d="M622.98,231.647L622.98,228.893L619.676,228.893L619.676,231.647L622.98,231.647Z" style="fill:rgb(63,61,86);fill-rule:nonzero;"/>
            <path d="M622.705,233.85L619.676,233.85L619.676,236.603L622.98,236.603L622.98,233.85L622.705,233.85Z" style="fill:rgb(63,61,86);fill-rule:nonzero;"/>
            <rect x="625.183" y="228.893" width="3.304" height="2.754" style="fill:rgb(63,61,86);"/>
            <rect x="625.183" y="233.85" width="3.304" height="2.754" style="fill:rgb(63,61,86);"/>
            <path d="M684.045,263.999L680.585,258.232L712.882,205.457L795.932,205.457L795.932,213.531L765.941,270.92L731.337,277.841L684.045,263.999Z" style="fill:rgb(63,61,86);fill-rule:nonzero;"/>
            <path d="M810.228,212.859L810.228,203.655L799.354,203.655L799.354,209.346L795.932,205.457L768.248,258.232L763.634,262.846L757.867,285.915L768.248,311.291L821.308,311.291L821.308,259.385L810.228,212.859Z" style="fill:rgb(204,204,204);fill-rule:nonzero;"/>
            <rect x="680.585" y="258.232" width="87.663" height="53.059" style="fill:rgb(242,242,242);"/>
            <rect x="737.682" y="274.957" width="18.455" height="16.149" style="fill:rgb(63,61,86);"/>
            <rect x="714.035" y="274.381" width="16.149" height="36.911" style="fill:rgb(204,204,204);"/>
            <path d="M695.58,280.148L695.58,274.38L688.659,274.38L688.659,280.148L695.58,280.148Z" style="fill:rgb(63,61,86);fill-rule:nonzero;"/>
            <path d="M695.003,284.762L688.659,284.762L688.659,290.529L695.58,290.529L695.58,284.762L695.003,284.762Z" style="fill:rgb(63,61,86);fill-rule:nonzero;"/>
            <rect x="700.194" y="274.381" width="6.921" height="5.767" style="fill:rgb(63,61,86);"/>
            <rect x="700.194" y="284.762" width="6.921" height="5.767" style="fill:rgb(63,61,86);"/>
            <path d="M793.048,280.725L793.048,274.957L786.127,274.957L786.127,280.725L793.048,280.725Z" style="fill:rgb(63,61,86);fill-rule:nonzero;"/>
            <path d="M792.471,285.338L786.127,285.338L786.127,291.106L793.048,291.106L793.048,285.338L792.471,285.338Z" style="fill:rgb(63,61,86);fill-rule:nonzero;"/>
            <rect x="797.662" y="274.957" width="6.921" height="5.767" style="fill:rgb(63,61,86);"/>
            <rect x="797.662" y="285.338" width="6.921" height="5.767" style="fill:rgb(63,61,86);"/>
            <path d="M716.16,227.985L715.25,226.467L723.747,212.581L745.599,212.581L745.599,214.706L737.708,229.806L728.603,231.626L716.16,227.985Z" style="fill:rgb(63,61,86);fill-rule:nonzero;"/>
            <path d="M745.599,212.581L738.315,226.467L737.101,227.681L735.583,233.751L738.315,240.428L752.275,240.428L752.275,226.771L745.599,212.581Z" style="fill:rgb(204,204,204);fill-rule:nonzero;"/>
            <rect x="715.25" y="226.467" width="23.065" height="13.961" style="fill:rgb(242,242,242);"/>
            <path d="M725.021,232.483L725.021,229.729L721.717,229.729L721.717,232.483L725.021,232.483Z" style="fill:rgb(63,61,86);fill-rule:nonzero;"/>
            <path d="M724.746,234.686L721.717,234.686L721.717,237.44L725.021,237.44L725.021,234.686L724.746,234.686Z" style="fill:rgb(63,61,86);fill-rule:nonzero;"/>
            <rect x="727.224" y="229.729" width="3.304" height="2.754" style="fill:rgb(63,61,86);"/>
            <rect x="727.224" y="234.686" width="3.304" height="2.754" style="fill:rgb(63,61,86);"/>
            <g transform="matrix(0.647919,0,0,1.42932,324.061,-134.116)">
                <rect x="0.836" y="310.718" width="919.582" height="1.673" style="fill:rgb(63,61,86);"/>
            </g>
            <rect x="857.478" y="200.433" width="2.792" height="110.286" style="fill:rgb(63,61,86);"/>
            <g transform="matrix(1,0,0,1,-139.791,-169.598)">
                <path d="M1027.31,402.127C1027.31,403.341 1027.3,404.548 1027.27,405.75C1026.27,449.164 974.224,449.404 972.823,406C972.784,404.799 972.761,403.592 972.756,402.379C972.532,353.85 999.627,314.385 999.627,314.385C999.627,314.385 1027.08,353.599 1027.31,402.127Z" style="fill:rgb(230,230,230);fill-rule:nonzero;"/>
            </g>
            <path d="M592.486,309.751L634.355,309.77L639.466,309.77L648.096,309.776L648.096,309.146L648.102,301.558L648.108,293.037L642.367,293.037L637.256,293.031L628.203,293.025L623.091,293.025L612.639,293.019L592.486,309.751Z" style="fill:white;fill-rule:nonzero;"/>
            <path d="M654.908,309.782L677.036,309.794L677.042,305.452L677.042,297.864L677.048,293.056L673.808,293.056L668.697,293.05L654.915,293.044L654.908,309.782Z" style="fill:white;fill-rule:nonzero;"/>
            <path d="M637.256,293.031L648.096,309.146L648.102,301.558L642.367,293.037L637.256,293.031Z" style="fill:rgb(242,242,242);fill-rule:nonzero;"/>
            <path d="M668.697,293.05L677.042,305.452L677.042,297.864L673.808,293.056L668.697,293.05Z" style="fill:rgb(242,242,242);fill-rule:nonzero;"/>
            <path d="M623.091,293.025L634.355,309.77L639.466,309.77L628.203,293.025L623.091,293.025Z" style="fill:rgb(242,242,242);fill-rule:nonzero;"/>
            <g transform="matrix(1,0,0,1,126.187,-169.598)">
                <path d="M295.405,216.889L295.284,216.955C292.627,218.408 289.407,218.419 286.741,216.985C286.665,216.944 286.589,216.904 286.515,216.864C283.848,215.441 280.637,215.452 277.981,216.894L277.868,216.955C275.211,218.408 271.991,218.42 269.324,216.985C269.246,216.943 269.167,216.901 269.09,216.86C266.455,215.443 263.279,215.437 260.639,216.845C256.665,218.985 251.293,222.644 251.317,226.776C251.318,226.939 251.327,227.103 251.344,227.265C251.807,231.557 265.804,232.65 273.493,230.628C279.224,231.935 285.178,231.935 290.909,230.628C298.565,232.682 312.847,231.505 313.265,227.165C313.28,227.002 313.288,226.839 313.287,226.675C313.263,222.541 307.843,218.92 303.845,216.81C301.198,215.425 298.026,215.455 295.405,216.889Z" style="fill:rgb(230,230,230);fill-rule:nonzero;"/>
            </g>
            <g transform="matrix(1,0,0,1,40.6712,-169.598)">
                <path d="M555.528,262.245L555.407,262.311C552.75,263.764 549.531,263.775 546.864,262.341C546.788,262.3 546.713,262.259 546.638,262.22C543.971,260.796 540.76,260.807 538.104,262.249L537.991,262.311C535.334,263.764 532.114,263.775 529.447,262.341C529.369,262.298 529.29,262.256 529.213,262.215C526.578,260.799 523.402,260.793 520.762,262.2C516.788,264.34 511.416,267.999 511.44,272.131C511.441,272.295 511.45,272.458 511.468,272.621C511.93,276.912 525.927,278.005 533.616,275.983C539.347,277.291 545.301,277.291 551.032,275.983C558.689,278.038 572.97,276.861 573.388,272.52C573.403,272.357 573.411,272.194 573.41,272.031C573.386,267.896 567.967,264.276 563.968,262.166C561.321,260.781 558.149,260.81 555.528,262.245Z" style="fill:rgb(230,230,230);fill-rule:nonzero;"/>
            </g>
            <g transform="matrix(1,0,0,1,40.6712,-169.598)">
                <path d="M735.313,218.857L735.191,218.923C732.535,220.376 729.315,220.387 726.648,218.953C726.572,218.912 726.497,218.872 726.422,218.832C723.756,217.409 720.545,217.42 717.888,218.861L717.775,218.923C715.118,220.376 711.898,220.387 709.232,218.953C709.153,218.91 709.075,218.868 708.997,218.827C706.362,217.411 703.186,217.405 700.546,218.812C696.573,220.952 691.2,224.611 691.224,228.743C691.225,228.907 691.234,229.07 691.252,229.233C691.714,233.524 705.711,234.617 713.4,232.595C719.132,233.903 725.085,233.903 730.816,232.595C738.473,234.65 752.754,233.473 753.172,229.132C753.188,228.969 753.195,228.806 753.194,228.643C753.171,224.508 747.751,220.888 743.752,218.778C741.105,217.393 737.933,217.423 735.313,218.857Z" style="fill:rgb(230,230,230);fill-rule:nonzero;"/>
            </g>
        </g>
    </g>
</svg>