<svg width="100%" height="100%" viewBox="0 0 1000 532" version="1.1" xmlns="http://www.w3.org/2000/svg" xmlns:xlink="http://www.w3.org/1999/xlink" xml:space="preserve" xmlns:serif="http://www.serif.com/" style="fill-rule:evenodd;clip-rule:evenodd;stroke-linejoin:round;stroke-miterlimit:2;">
    <g transform="matrix(1,0,0,1,0,2e-05)">
        <g>
            <g transform="matrix(1,0,0,1,-31.5,-184.416)">
                <path d="M157.398,712.972L155.447,712.532C177.203,615.781 231.877,527.923 309.398,465.141C388.417,401.245 487.023,366.366 588.643,366.366C795.004,366.366 975.492,510.197 1021.55,711.352L1019.6,711.795C973.55,509.586 796.329,368.361 588.634,368.361C383.66,368.361 202.3,513.29 157.398,712.972Z" style="fill:rgb(63,61,86);fill-rule:nonzero;"/>
            </g>
            <rect x="286.141" y="177.432" width="8.903" height="351.653" style="fill:rgb(63,61,86);"/>
            <g transform="matrix(1,0,0,1,-31.5,-184.416)">
                <path d="M408.705,406.662C409.271,529.626 322.759,629.71 322.759,629.71C322.759,629.71 235.329,530.428 234.762,407.464C234.195,284.499 320.707,184.416 320.707,184.416C320.707,184.416 408.138,283.697 408.705,406.662Z" style="fill:rgb(34,139,230);fill-rule:nonzero;"/>
            </g>
            <rect x="225.5" y="383.5" width="689" height="146" style="fill:rgb(242,242,242);"/>
            <path d="M203.5,399.5L278.5,242.5L877.5,242.5L933.5,399.5L203.5,399.5Z" style="fill:rgb(63,61,86);fill-rule:nonzero;"/>
            <rect x="390.5" y="252.5" width="278" height="92" style="fill:rgb(242,242,242);"/>
            <path d="M408.5,177.5L364.5,269.5L694.5,269.5L668.5,177.5L408.5,177.5Z" style="fill:rgb(63,61,86);fill-rule:nonzero;"/>
            <rect x="415" y="412.5" width="219.5" height="117" style="fill:rgb(204,204,204);"/>
            <rect x="252.5" y="416.5" width="117" height="113" style="fill:rgb(204,204,204);"/>
            <rect x="672.5" y="423.5" width="60.5" height="106" style="fill:rgb(63,61,86);"/>
            <g transform="matrix(0.879507,0,0,1.08408,0,-44.4783)">
                <rect x="0" y="529" width="1137" height="2" style="fill:rgb(63,61,86);"/>
            </g>
            <rect x="179.905" y="297.059" width="5.875" height="232.053" style="fill:rgb(63,61,86);"/>
            <g transform="matrix(1,0,0,1,-31.5,-184.416)">
                <path d="M271.497,511.047C271.871,592.191 214.783,658.235 214.783,658.235C214.783,658.235 157.088,592.72 156.714,511.576C156.34,430.433 213.428,364.389 213.428,364.389C213.428,364.389 271.123,429.904 271.497,511.047Z" style="fill:rgb(34,139,230);fill-rule:nonzero;"/>
            </g>
            <g transform="matrix(1,0,0,1,-31.5,-184.416)">
                <path d="M271.497,511.047C271.871,592.191 214.783,658.235 214.783,658.235C214.783,658.235 157.088,592.72 156.714,511.576C156.34,430.433 213.428,364.389 213.428,364.389C213.428,364.389 271.123,429.904 271.497,511.047Z" style="fill-opacity:0.1;fill-rule:nonzero;"/>
            </g>
            <rect x="103.533" y="297.059" width="5.875" height="232.053" style="fill:rgb(63,61,86);"/>
            <g transform="matrix(1,0,0,1,-31.5,-184.416)">
                <path d="M195.125,511.047C195.499,592.191 138.41,658.235 138.41,658.235C138.41,658.235 80.715,592.72 80.342,511.576C79.968,430.433 137.056,364.389 137.056,364.389C137.056,364.389 194.751,429.904 195.125,511.047Z" style="fill:rgb(34,139,230);fill-rule:nonzero;"/>
            </g>
            <rect x="798.5" y="429.5" width="29.5" height="27.5" style="fill:rgb(63,61,86);"/>
            <rect x="838" y="429.5" width="29.5" height="27.5" style="fill:rgb(63,61,86);"/>
            <rect x="798.5" y="467" width="29.5" height="28.5" style="fill:rgb(63,61,86);"/>
            <rect x="838" y="467" width="29.5" height="28.5" style="fill:rgb(63,61,86);"/>
            <rect x="416" y="277.674" width="23.087" height="21.522" style="fill:rgb(63,61,86);"/>
            <rect x="446.913" y="277.674" width="23.087" height="21.522" style="fill:rgb(63,61,86);"/>
            <rect x="416" y="307.022" width="23.087" height="22.304" style="fill:rgb(63,61,86);"/>
            <rect x="446.913" y="307.022" width="23.087" height="22.304" style="fill:rgb(63,61,86);"/>
            <rect x="589" y="277.674" width="23.087" height="21.522" style="fill:rgb(63,61,86);"/>
            <rect x="619.913" y="277.674" width="23.087" height="21.522" style="fill:rgb(63,61,86);"/>
            <rect x="589" y="307.022" width="23.087" height="22.304" style="fill:rgb(63,61,86);"/>
            <rect x="619.913" y="307.022" width="23.087" height="22.304" style="fill:rgb(63,61,86);"/>
            <rect x="503" y="277.674" width="23.087" height="21.522" style="fill:rgb(63,61,86);"/>
            <rect x="533.913" y="277.674" width="23.087" height="21.522" style="fill:rgb(63,61,86);"/>
            <rect x="503" y="307.022" width="23.087" height="22.304" style="fill:rgb(63,61,86);"/>
            <rect x="533.913" y="307.022" width="23.087" height="22.304" style="fill:rgb(63,61,86);"/>
            <rect x="686" y="434.239" width="14.536" height="13.551" style="fill:rgb(242,242,242);"/>
            <rect x="705.464" y="434.239" width="14.536" height="13.551" style="fill:rgb(242,242,242);"/>
            <rect x="686" y="452.717" width="14.536" height="14.043" style="fill:rgb(242,242,242);"/>
            <rect x="705.464" y="452.717" width="14.536" height="14.043" style="fill:rgb(242,242,242);"/>
            <circle cx="725" cy="484" r="4" style="fill:rgb(242,242,242);"/>
            <rect x="415" y="425" width="220" height="2" style="fill:rgb(242,242,242);"/>
            <rect x="415" y="434" width="220" height="2" style="fill:rgb(242,242,242);"/>
            <rect x="415" y="443" width="220" height="2" style="fill:rgb(242,242,242);"/>
            <rect x="415" y="452" width="220" height="2" style="fill:rgb(242,242,242);"/>
            <rect x="415" y="461" width="220" height="2" style="fill:rgb(242,242,242);"/>
            <rect x="415" y="470" width="220" height="2" style="fill:rgb(242,242,242);"/>
            <rect x="415" y="479" width="220" height="2" style="fill:rgb(242,242,242);"/>
            <rect x="415" y="488" width="220" height="2" style="fill:rgb(242,242,242);"/>
            <rect x="415" y="497" width="220" height="2" style="fill:rgb(242,242,242);"/>
            <rect x="415" y="506" width="220" height="2" style="fill:rgb(242,242,242);"/>
            <rect x="415" y="515" width="220" height="2" style="fill:rgb(242,242,242);"/>
            <rect x="252.5" y="425" width="117" height="2" style="fill:rgb(242,242,242);"/>
            <rect x="252.5" y="434" width="117" height="2" style="fill:rgb(242,242,242);"/>
            <rect x="252.5" y="443" width="117" height="2" style="fill:rgb(242,242,242);"/>
            <rect x="252.5" y="452" width="117" height="2" style="fill:rgb(242,242,242);"/>
            <rect x="252.5" y="461" width="117" height="2" style="fill:rgb(242,242,242);"/>
            <rect x="252.5" y="470" width="117" height="2" style="fill:rgb(242,242,242);"/>
            <rect x="252.5" y="479" width="117" height="2" style="fill:rgb(242,242,242);"/>
            <rect x="252.5" y="488" width="117" height="2" style="fill:rgb(242,242,242);"/>
            <rect x="252.5" y="497" width="117" height="2" style="fill:rgb(242,242,242);"/>
            <rect x="252.5" y="506" width="117" height="2" style="fill:rgb(242,242,242);"/>
            <rect x="252.5" y="515" width="117" height="2" style="fill:rgb(242,242,242);"/>
        </g>
    </g>
</svg>